<svg width="134" height="173" viewBox="0 0 134 173" fill="none" xmlns="http://www.w3.org/2000/svg">
<path fill-rule="evenodd" clip-rule="evenodd" d="M49.21 1.42244L49.21 1.42245L49.21 1.42246L49.2098 1.4225C49.0916 1.45279 48.9683 1.48436 48.8377 1.5167C48.3855 0.547693 48.1736 0.397782 47.3327 0.659696L47.2787 0.676471C46.8733 0.801974 46.4427 0.935306 46.1731 1.36752C46.0425 1.57726 45.8737 1.76282 45.7048 1.94864C45.5437 2.12578 45.3823 2.30315 45.2537 2.50191C44.7236 3.32201 44.3092 4.19084 44.4365 5.21719C44.4776 5.54689 44.5023 5.87866 44.5279 6.22232L44.5279 6.22234C44.5397 6.38118 44.5517 6.54257 44.5656 6.70747L44.8717 6.96429C44.9086 6.99527 44.9459 7.02591 44.9831 7.05656L44.9831 7.05658L44.9832 7.0566L44.9832 7.05662L44.9832 7.05664L44.9832 7.05666L44.9833 7.05668L44.9833 7.0567L44.9833 7.05673L44.9833 7.05675L44.9834 7.05677L44.9834 7.05679L44.9834 7.05681L44.9834 7.05683L44.9835 7.05685L44.9835 7.05687L44.9835 7.0569L44.9835 7.05692L44.9836 7.05694L44.9836 7.05696L44.9836 7.05698L44.9836 7.057L44.9837 7.05702L44.9837 7.05705L44.9837 7.05707L44.9838 7.0571L44.9838 7.05713L44.9838 7.05715L44.9839 7.05718L44.9839 7.05721L44.9839 7.05723L44.984 7.05726L44.984 7.05728L44.984 7.05731L44.984 7.05734L44.9841 7.05736L44.9841 7.05739L44.9841 7.05742L44.9842 7.05744L44.9842 7.05747L44.9842 7.05749L44.9843 7.05752L44.9843 7.05755L44.9843 7.05757L44.9844 7.0576C45.059 7.11904 45.1337 7.1805 45.2059 7.24475C45.7703 7.74675 45.7694 7.74895 45.4206 8.63253L45.4125 8.65304C45.3797 8.73576 45.3656 8.83315 45.3517 8.92871C45.3307 9.07331 45.3103 9.21373 45.227 9.29283C44.7326 9.76147 44.8117 10.2744 44.9714 10.8284L45.6683 10.3752L46.4434 9.8712L46.5799 10.0416L45.5354 11.2863C46.158 12.1094 46.6611 11.6637 47.1305 11.2478C47.1597 11.222 47.1887 11.1963 47.2176 11.171C47.5055 11.7696 47.835 12.105 48.4425 11.8355C48.9312 11.6187 48.952 11.9056 48.9733 12.1982L48.9733 12.1982L48.9733 12.1983C48.9762 12.2385 48.9791 12.2788 48.9833 12.3179C50.013 12.009 50.9077 11.356 51.5175 10.4683C52.0177 9.79842 52.5637 9.16303 53.1098 8.52751L53.1098 8.52745L53.1099 8.52739L53.1099 8.52733L53.11 8.52728L53.11 8.52722L53.1101 8.52716L53.1101 8.5271L53.1102 8.52704L53.1102 8.52699L53.1103 8.52693L53.1103 8.52687L53.1104 8.52681L53.1104 8.52675L53.1105 8.5267L53.1105 8.52664L53.1106 8.52658L53.1106 8.52652L53.1107 8.52646L53.1107 8.5264L53.1108 8.52635L53.1108 8.52629L53.1109 8.52623C53.3917 8.19945 53.6725 7.87264 53.9471 7.54108C54.0984 7.34037 54.2395 7.13217 54.3699 6.91728L54.2511 6.82624L53.2368 7.81588C53.343 7.43537 53.5399 7.08589 53.8105 6.79757C54.0471 6.50338 54.2608 6.1915 54.4496 5.86472C54.5934 5.54595 54.715 5.21775 54.8136 4.88246L54.1993 5.25121C54.4012 4.23748 54.4 4.23689 53.5515 3.81719L53.5448 3.81387C53.4288 3.75622 53.2451 3.66104 53.2421 3.57996C53.2296 3.1334 53.026 3.06004 52.6065 3.03011C52.5084 3.02304 52.434 2.87464 52.3519 2.71117C52.2762 2.56045 52.1941 2.39691 52.0812 2.31948C51.7741 2.13195 51.4291 2.01478 51.0707 1.97633C50.8384 1.94287 50.7712 1.77105 50.7057 1.6037C50.6452 1.44935 50.5863 1.2988 50.4007 1.26411C50.2663 1.23001 50.1265 1.22101 49.9885 1.23757C49.7364 1.28757 49.4871 1.35145 49.21 1.42244ZM61.6676 29.3984C61.5039 29.3309 61.4062 29.1037 61.2144 28.6574C61.0703 28.6981 60.9203 28.7027 60.7689 28.7074C60.4461 28.7173 60.117 28.7274 59.8251 29.0873C59.4342 29.554 59.232 30.1499 59.2588 30.7564C59.2603 30.8257 59.2585 30.8979 59.2567 30.9709C59.2509 31.2048 59.2449 31.446 59.346 31.6188C59.642 32.1254 59.6577 32.669 59.6734 33.2114C59.681 33.4749 59.6886 33.7382 59.7284 33.9968C59.8688 34.9136 59.4793 35.7467 58.9791 36.4391C57.7651 38.1201 57.5565 40.0591 57.3479 41.9967L57.3311 42.1535C57.2642 42.7808 57.6604 43.2357 58.0627 43.6975C58.1314 43.7763 58.2003 43.8554 58.2671 43.9355L58.2998 43.9748C59.0243 44.8444 59.1945 45.0487 60.0414 44.7L60.1343 44.6614C60.6655 44.4401 61.0116 44.2959 61.1319 45.0953C61.14 45.1556 61.3679 45.1916 61.5443 45.2195L61.5706 45.2237C61.5921 45.2271 61.6125 45.2304 61.6314 45.2336C61.7026 45.2456 61.7993 45.2457 61.888 45.2457L61.888 45.2457C62.0073 45.2458 62.112 45.2459 62.1198 45.275C62.3004 45.9869 62.6987 45.5837 62.8981 45.3818L62.9082 45.3716C62.9756 45.3034 63.0443 45.2351 63.1133 45.1664L63.1133 45.1663L63.1133 45.1663L63.1134 45.1663L63.1135 45.1661C63.5689 44.7128 64.0401 44.2436 64.296 43.6874C64.3857 43.4919 64.4975 43.3011 64.6098 43.1093L64.6099 43.1093L64.6099 43.1092L64.6099 43.1091L64.61 43.1091L64.61 43.109L64.61 43.109L64.6101 43.1089L64.6101 43.1089L64.6101 43.1088L64.6102 43.1088L64.6102 43.1087L64.6102 43.1086L64.6103 43.1086L64.6103 43.1085L64.6103 43.1085L64.6104 43.1084L64.6104 43.1084L64.6104 43.1083L64.6104 43.1083L64.6105 43.1082L64.6105 43.1081L64.6105 43.1081L64.6106 43.108L64.6106 43.108C64.8925 42.6268 65.178 42.1393 65.1315 41.5552C65.0678 41.1753 65.1939 40.7872 65.4691 40.5159C65.5719 40.3661 65.6299 40.1901 65.636 40.009C65.6539 39.8904 65.6723 39.7719 65.6908 39.6533C65.7707 39.1392 65.8508 38.6246 65.8862 38.1075C65.9098 37.7602 65.9094 37.4115 65.909 37.0628C65.9086 36.7064 65.9081 36.35 65.9334 35.9953C65.9689 35.4943 65.9605 34.9906 65.9522 34.4936L65.9522 34.4935L65.9522 34.4926C65.9505 34.3941 65.9489 34.2958 65.9476 34.1979C65.9461 34.0855 65.9466 33.972 65.9471 33.858L65.9471 33.8579C65.9502 33.0874 65.9535 32.2924 65.3588 31.635C64.9566 31.1448 64.5812 30.6332 64.2343 30.1022C63.7609 30.1486 63.4681 29.8735 63.1767 29.5995C62.9895 29.4235 62.8028 29.2481 62.569 29.1585C62.0782 29.3665 61.8374 29.4685 61.6676 29.3984ZM82.7396 171.909C83.7128 171.059 84.801 170.489 86.0654 170.528C86.1884 170.339 86.2982 170.164 86.4011 170L86.4014 170L86.4023 169.998L86.4026 169.998C86.6074 169.672 86.7848 169.389 86.985 169.126C87.3815 168.607 87.6717 167.985 87.2978 167.459C86.8517 166.832 86.6978 166.324 87.1846 165.691C87.2315 165.61 87.2391 165.513 87.2054 165.427C86.8542 164.719 86.8346 163.963 86.815 163.207L86.815 163.206C86.8047 162.812 86.7945 162.418 86.7372 162.031L86.715 161.878C86.5895 161.01 86.5828 160.964 85.6334 160.275C85.4426 160.137 85.2412 160.014 85.0098 159.871L84.8732 159.787C84.7993 159.742 84.7223 159.694 84.6416 159.643C84.6303 158.856 84.6688 158.07 84.7567 157.287C84.7913 157.072 84.7862 156.849 84.7812 156.625C84.7706 156.154 84.76 155.682 85.1184 155.28C84.8196 154.952 84.8282 154.553 84.836 154.191C84.841 153.955 84.8458 153.735 84.7652 153.561L83.4417 152.836L82.9195 153.459C82.8838 153.235 82.8629 153.104 82.8539 153.044L82.2003 152.967C81.5682 155.292 81.1576 157.67 80.9739 160.07C80.9643 160.439 80.7347 160.769 80.3908 160.906C80.4295 160.533 80.4614 160.167 80.4928 159.809C80.5618 159.02 80.628 158.263 80.7571 157.517C80.9226 156.561 81.1412 155.615 81.3602 154.666L81.3603 154.666L81.3604 154.665L81.3606 154.664L81.3607 154.663L81.3609 154.663C81.4553 154.254 81.5497 153.845 81.64 153.435C80.6808 153.358 80.68 153.361 80.4632 154.09L80.4534 154.123C79.8219 156.247 79.5047 158.434 79.1884 160.614L79.1883 160.614C79.1401 160.946 79.092 161.277 79.0428 161.609C78.6777 164.067 78.408 166.55 78.7813 169.054C78.8542 169.543 79.0236 169.98 79.1928 170.416L79.193 170.417C79.2699 170.615 79.3467 170.813 79.4143 171.016C79.5328 171.257 79.7655 171.422 80.033 171.453C80.4158 171.414 80.6856 171.557 80.9756 171.71L81.0319 171.74C81.0877 171.769 81.1446 171.798 81.2035 171.826C81.2407 171.844 81.2785 171.863 81.317 171.881C81.7428 172.091 82.2473 172.338 82.7396 171.909ZM97.8862 131.945C97.8587 131.618 97.8392 131.3 97.8202 130.99C97.7798 130.33 97.7414 129.701 97.6311 129.085C97.2549 126.982 97.7082 124.976 98.1614 122.97C98.2681 122.498 98.3748 122.026 98.4706 121.553C98.6614 120.612 99.2883 119.925 99.908 119.245L99.9088 119.244C100.024 119.117 100.139 118.991 100.251 118.863C100.335 118.767 100.508 118.749 100.685 118.729C100.769 118.72 100.854 118.711 100.932 118.694L100.924 118.726C100.821 119.161 100.723 119.573 100.583 120.169L101.87 118.635C102.014 118.669 102.153 118.711 102.286 118.751C102.577 118.839 102.847 118.921 103.112 118.909C103.505 118.91 103.865 119.124 104.054 119.467C104.212 119.686 104.281 119.969 104.354 120.266C104.386 120.398 104.419 120.533 104.461 120.665C103.614 121.327 103.363 122.266 103.164 123.295C103.318 123.366 103.443 123.489 103.57 123.613C103.797 123.835 104.031 124.064 104.449 124.02C104.642 124.052 104.807 124.177 104.887 124.356C104.987 124.649 105.109 124.937 105.232 125.226C105.625 126.156 106.02 127.089 105.669 128.178L105.645 128.252L105.644 128.252C105.565 128.495 105.472 128.777 105.549 128.973C105.602 129.11 105.537 129.229 105.471 129.347C105.381 129.51 105.292 129.671 105.52 129.878C105.734 130.073 105.584 130.21 105.432 130.35C105.355 130.42 105.278 130.491 105.246 130.57C105.145 130.87 105.023 131.162 104.88 131.444C104.714 131.684 104.529 131.911 104.326 132.121C102.876 132.178 101.46 132.589 100.201 133.317L97.8862 131.945ZM106.003 65.0066L106.001 65.0063C105.423 64.9514 104.855 64.8974 104.292 64.8139C104.246 64.8074 104.22 64.6732 104.187 64.5039L104.187 64.5037L104.187 64.5034C104.169 64.4136 104.15 64.314 104.124 64.2183C103.883 64.3285 103.635 64.4207 103.38 64.4942C103.092 64.5383 102.801 64.5675 102.51 64.5818L102.432 64.5903C101.869 64.6516 101.311 64.7125 101.265 63.8674C101.262 63.826 101.208 63.7899 101.152 63.7521C101.117 63.7285 101.08 63.7042 101.055 63.6775C100.935 63.5522 100.806 63.4402 100.678 63.3289C100.301 63.0003 99.9296 62.6772 99.8024 62.0323C99.748 61.7567 99.6615 61.4822 99.574 61.2045C99.4408 60.7815 99.3052 60.3512 99.277 59.8981C99.1887 59.1966 99.2012 58.4854 99.3142 57.7862C99.5563 56.6867 99.7968 55.6009 100.692 54.8229C100.987 54.6333 101.303 54.4797 101.635 54.3654L101.848 55.5181C102.038 55.3934 102.217 55.2474 102.398 55.0999L102.399 55.0997C102.878 54.7099 103.37 54.3092 104.101 54.2618L104.358 55.367L105.045 54.5482C105.307 54.7009 105.573 54.8357 105.836 54.9692C106.416 55.263 106.982 55.5499 107.462 56.0049C107.845 56.3392 108.095 56.8011 108.166 57.3064C108.188 57.5175 108.229 57.7251 108.27 57.9332C108.348 58.3352 108.427 58.739 108.377 59.1732C108.342 59.474 108.345 59.7792 108.348 60.0873C108.35 60.3882 108.353 60.6919 108.32 60.9971C108.252 61.6313 108.035 62.2143 107.819 62.7965C107.69 63.1451 107.56 63.4934 107.463 63.8521C107.378 64.167 107.108 64.4328 106.84 64.6958C106.72 64.8144 106.6 64.9325 106.498 65.0543C106.335 65.0381 106.172 65.0227 106.011 65.0073L106.003 65.0066ZM39.1563 49.2628L41.1793 46.8518L41.015 46.6299C40.8201 46.7609 40.6035 46.8796 40.3869 46.9984L40.3869 46.9984L40.3868 46.9984C39.895 47.268 39.4032 47.5376 39.1643 47.9515C39.065 48.1244 38.9556 48.2949 38.8451 48.4671L38.8451 48.4672C38.4943 49.0139 38.1331 49.5768 38.0551 50.2811C38.0091 50.6965 37.9055 51.1079 37.8021 51.5191C37.5623 52.4718 37.3229 53.423 37.8009 54.4186C37.4736 55.0753 37.752 55.6356 38.0193 56.1734C38.0912 56.3179 38.1622 56.4608 38.2204 56.6036C38.5972 57.527 39.0295 58.4806 40.2562 58.6312C41.0725 58.7314 41.8838 58.8699 42.6867 59.0069L42.687 59.007C43.0378 59.0668 43.387 59.1264 43.7342 59.1825C44.0075 58.8081 44.3089 58.4551 44.6359 58.1266C45.3382 57.5222 45.5205 56.6629 45.5505 55.8734C45.5677 55.412 45.7407 54.9691 46.0412 54.6172C46.148 54.1256 46.0563 53.6958 45.9672 53.2787C45.8886 52.9103 45.8121 52.5519 45.8765 52.1696C45.8859 51.7565 45.707 51.3627 45.3904 51.0995C45.1982 50.9556 45.0274 50.7793 44.8559 50.6022L44.8559 50.6022L44.8559 50.6022L44.8559 50.6022L44.8558 50.6022L44.8558 50.6021L44.8558 50.6021L44.8557 50.6021L44.8557 50.6021L44.8557 50.6021L44.8557 50.602L44.8556 50.602L44.8556 50.602L44.8556 50.602L44.8556 50.6019L44.8555 50.6019L44.8555 50.6019L44.8555 50.6019L44.8555 50.6019L44.8554 50.6018L44.8554 50.6018C44.4669 50.2007 44.0749 49.7961 43.4224 49.7561C43.3226 49.75 43.2396 49.5989 43.1502 49.4363L43.1502 49.4363C43.0884 49.324 43.0236 49.2062 42.9482 49.1268C42.8899 49.0654 42.7905 49.0429 42.6588 49.0132C42.5888 48.9974 42.5097 48.9796 42.4228 48.9527C42.6392 48.7563 42.8229 48.5266 42.9668 48.2724C43.0517 48.0395 43.0628 47.5881 42.9341 47.5088C42.541 47.2934 42.1168 47.1399 41.6764 47.0536C41.3526 46.9749 41.1943 47.1972 41.0406 47.4131C40.9949 47.4772 40.9497 47.5408 40.9006 47.5957C40.803 47.7048 40.7072 47.8157 40.6114 47.9267L40.6113 47.9268C40.1839 48.4216 39.7556 48.9176 39.1563 49.2628ZM52.5849 77.1412L52.3468 74.319C52.6747 73.8833 53.0322 73.4707 53.4169 73.0842C53.574 72.9411 53.9396 72.973 54.1912 73.0226C54.2575 73.0356 54.2973 73.1811 54.3371 73.3261C54.3544 73.3894 54.3716 73.4525 54.3911 73.5046C54.4542 73.4774 54.5179 73.4465 54.5822 73.4154C54.9588 73.2331 55.3532 73.0422 55.7449 73.5265C55.8254 73.6447 55.9471 73.7283 56.0863 73.7612C56.5461 73.7687 57.034 73.7908 57.3011 74.1819C57.3924 74.3153 57.4884 74.4482 57.585 74.5819C57.9955 75.1502 58.4152 75.7311 58.5151 76.4147C58.7586 78.0842 58.8917 79.7879 58.3301 81.4328C58.0116 82.4219 57.5986 83.3785 57.097 84.2893C56.8315 84.7656 56.3179 85.0491 55.7755 85.0188C55.3862 84.9858 54.996 84.9612 54.6059 84.9366L54.6058 84.9366L54.6055 84.9366L54.6054 84.9366L54.6051 84.9365L54.6049 84.9365L54.6046 84.9365L54.6045 84.9365L54.6042 84.9365L54.6041 84.9365L54.6038 84.9364L54.6037 84.9364L54.6034 84.9364L54.6033 84.9364L54.603 84.9364L54.6028 84.9364L54.6025 84.9363L54.6024 84.9363L54.6021 84.9363L54.602 84.9363C53.9816 84.8971 53.3615 84.858 52.7454 84.7852C52.3818 84.7434 52.0408 84.5896 51.7695 84.345C50.2652 82.8419 49.7534 81.1033 50.8217 78.8568C50.8726 78.7498 50.914 78.6328 50.9553 78.516C51.0403 78.2758 51.1249 78.0367 51.2911 77.888C51.6943 77.5929 52.1282 77.3425 52.5849 77.1412ZM21.7398 119.286L21.3051 120.073C21.7641 119.847 22.0786 119.591 22.1032 119.019C22.1191 118.653 22.218 118.301 22.3177 117.945L22.3177 117.945C22.4521 117.466 22.5879 116.982 22.5237 116.455C22.459 116.132 22.4322 115.803 22.4438 115.474C22.7543 113.488 22.1624 111.722 21.3169 110L21.2977 109.96L21.2842 109.932C21.1886 109.733 21.0607 109.467 20.9459 109.465C20.5784 109.461 20.4575 109.244 20.3294 109.015C20.2988 108.96 20.2678 108.904 20.2329 108.851C20.1314 108.695 19.9374 108.482 19.7975 108.492C19.3255 108.525 18.905 108.385 18.4812 108.245L18.481 108.245C18.3895 108.215 18.2979 108.184 18.2056 108.156C18.0906 108.12 17.8643 108.066 17.8438 108.393C17.8332 108.554 17.7324 108.709 17.6174 108.886C17.5616 108.972 17.5025 109.063 17.4488 109.162C17.1324 108.429 16.7815 107.929 16.0878 108.124C16.0206 108.319 15.9423 108.508 15.8659 108.692L15.8659 108.692L15.8658 108.693L15.8658 108.693L15.8658 108.693L15.8657 108.693L15.8657 108.693L15.8657 108.693L15.8657 108.693L15.8656 108.693L15.8656 108.693L15.8656 108.693L15.8656 108.693L15.8655 108.693L15.8655 108.693L15.8655 108.693L15.8655 108.693L15.8654 108.694L15.8654 108.694C15.7019 109.088 15.5464 109.463 15.5231 109.844C15.5005 110.212 15.4304 110.578 15.3603 110.945C15.2103 111.729 15.0601 112.515 15.3741 113.313C15.0274 115.043 15.5872 116.604 16.149 118.17L16.1491 118.17L16.1494 118.171C16.1967 118.303 16.2439 118.435 16.2907 118.567C16.4218 119.112 16.8907 119.508 17.4504 119.545C17.4754 119.548 17.5014 119.551 17.5282 119.553C17.7539 119.574 18.027 119.598 18.0837 120.02C18.1433 120.182 18.2718 120.309 18.4346 120.366C18.5973 120.422 18.7772 120.403 18.9255 120.314C19.2936 120.057 19.7335 119.998 20.175 119.94C20.744 119.864 21.3157 119.788 21.7398 119.286ZM133.05 124.562L133.681 123.996C133.692 124.041 133.706 124.081 133.718 124.116C133.741 124.18 133.758 124.23 133.745 124.269C133.662 124.526 133.586 124.785 133.51 125.044L133.51 125.045C133.307 125.739 133.104 126.432 132.766 127.083L132.718 127.177C132.445 127.707 132.186 128.212 131.463 128.199C131.264 128.196 131.099 128.337 130.933 128.479C130.665 128.708 130.397 128.937 129.987 128.55C129.23 128.8 128.753 128.335 128.29 127.885L128.254 127.85C127.877 128.121 127.482 128.366 127.071 128.583C126.611 128.791 125.993 128.441 125.558 127.794C125.518 127.734 125.49 127.66 125.464 127.587C125.425 127.48 125.387 127.376 125.31 127.323L125.283 127.304C124.313 126.625 124.311 126.623 124.536 125.567C124.621 125.03 124.736 124.498 124.881 123.974C125.093 123.395 125.045 122.754 124.749 122.217C124.311 121.361 124.349 120.336 124.848 119.509C125.291 118.76 126.103 118.413 127.084 118.429L127.058 118.964L127.058 118.979L127.053 119.083L127.051 119.12L127.051 119.13L127.05 119.136L127.049 119.162C127.03 119.567 127.009 120.007 126.983 120.542C127.128 120.37 127.257 120.215 127.375 120.072L127.379 120.068L127.382 120.064L127.385 120.061L127.388 120.057L127.391 120.054C127.639 119.755 127.844 119.51 128.054 119.27C128.304 118.984 128.338 118.994 128.742 119.123C128.845 119.156 128.972 119.196 129.132 119.241C129.323 119.294 129.495 119.413 129.668 119.531C130.004 119.761 130.339 119.992 130.81 119.746L132.057 120.713C132.826 121.308 133.417 121.944 133.066 123.067C132.969 123.372 132.996 123.714 133.023 124.069C133.036 124.232 133.049 124.397 133.05 124.562ZM18.254 35.2027C17.74 35.9532 17.7887 36.952 18.3729 37.6422L19.5577 37.0234C19.239 37.7848 19.1187 38.4604 19.7567 39.1265C20.0399 38.9977 20.3295 38.8834 20.6242 38.784C20.7025 38.7612 20.7921 38.7573 20.8808 38.7535C21.1308 38.7428 21.3741 38.7323 21.339 38.2969L21.9642 38.9076C22.4143 38.694 23.0161 38.4091 23.58 38.1422C23.6348 38.2181 23.6882 38.2929 23.7407 38.3664L23.7416 38.3678C23.9093 38.6026 24.0686 38.8257 24.2402 39.0387C24.2694 39.0774 24.452 39.0593 24.4877 39.0107C24.5646 38.9052 24.6673 38.7172 24.6239 38.6461C24.5804 38.5749 24.5019 38.5184 24.426 38.4636C24.3345 38.3977 24.2468 38.3345 24.2285 38.2515C24.2073 38.1583 24.2776 38.0439 24.3734 37.8879C24.4232 37.8068 24.48 37.7143 24.5344 37.6078L24.6471 38.384C24.8637 38.1258 25.0768 37.8722 25.2869 37.6221L25.2871 37.6219L25.2873 37.6217C26.0589 36.7032 26.7915 35.8313 27.516 34.9529C27.5595 34.8999 27.5694 34.8217 27.5795 34.7418C27.5874 34.6797 27.5953 34.6166 27.6194 34.5635C27.7521 34.2704 27.8314 33.9521 27.9092 33.6399C28.0626 33.0244 28.21 32.433 28.7487 32.1071C29.0289 31.3343 28.6294 30.9411 28.2537 30.5715C28.0074 30.3291 27.7713 30.0968 27.744 29.7741C27.5392 29.7294 27.3275 29.7033 27.1212 29.6778C26.6772 29.623 26.2579 29.5713 25.9842 29.3442C25.6839 29.0954 25.3366 29.0673 24.996 29.0398C24.6487 29.0117 24.3085 28.9841 24.0324 28.7239C23.9616 28.657 23.6194 28.7443 23.5245 28.8611C23.3538 29.0709 23.1318 29.2032 22.9073 29.3369C22.6568 29.4862 22.4031 29.6373 22.2137 29.9004C21.4735 30.9325 20.6571 31.9078 19.7715 32.8182C19.2998 33.3005 18.9902 33.8743 18.6827 34.4441C18.5442 34.7007 18.4062 34.9565 18.254 35.2027ZM56.9652 158.056L56.9649 158.056L56.9646 158.056C56.5151 157.625 56.1115 157.238 55.4177 157.584C55.4711 156.564 55.7879 156.073 56.6849 155.979C56.9128 155.955 57.135 155.907 57.3583 155.858L57.3583 155.858L57.3584 155.858L57.3585 155.858L57.3585 155.858L57.3586 155.858L57.3586 155.858L57.3587 155.858L57.3588 155.858L57.3588 155.858L57.3589 155.858L57.359 155.858L57.359 155.858L57.3591 155.858L57.3592 155.858L57.3592 155.858C57.7424 155.775 58.1289 155.691 58.5529 155.728C58.8926 155.757 59.2419 155.617 59.5968 155.474C59.8565 155.369 60.1193 155.263 60.3835 155.221C60.716 155.169 61.0638 155.218 61.4115 155.267C61.5667 155.289 61.7218 155.311 61.8755 155.323L61.9392 156L61.1001 155.934L61.0451 156.118L61.9463 156.659C61.9406 156.708 61.9245 156.772 61.9064 156.843C61.8584 157.032 61.796 157.278 61.873 157.466C62.5117 159.018 62.4027 160.623 62.2368 162.226C62.2045 162.538 62.0911 162.84 61.9772 163.144L61.9771 163.144C61.8988 163.353 61.8203 163.562 61.7679 163.776L61.7169 163.984C61.4435 165.103 61.3761 165.379 60.5861 166.058C59.9815 166.577 59.3329 167.128 58.4498 167.224C58.0834 167.241 57.7321 167.379 57.4504 167.616C56.9006 168.221 56.4744 168.035 55.999 167.58C55.8619 167.452 55.7051 167.347 55.5345 167.269C54.4581 166.77 54.3881 166.67 54.5184 165.627C54.6789 164.34 55.1572 163.151 55.6347 161.964L55.6348 161.964C55.7308 161.725 55.8268 161.486 55.9202 161.247C56.1933 160.546 56.5058 159.86 56.8143 159.183L56.8146 159.182C56.9507 158.884 57.086 158.587 57.2167 158.291C57.13 158.214 57.0468 158.135 56.9652 158.056ZM53.2097 133.648C53.2601 133.781 53.3107 133.914 53.3602 134.048C53.8131 133.767 54.3331 133.668 54.4532 134.145C54.6227 134.828 54.9499 134.58 55.216 134.371C55.2678 134.331 55.3176 134.284 55.3671 134.238C55.5377 134.079 55.7048 133.923 55.9389 134.017C56.3037 134.165 56.6305 134.061 56.953 133.959C57.092 133.914 57.2301 133.871 57.3701 133.847C57.7469 133.784 58.2504 133.563 58.4021 133.264C58.6379 132.741 58.7557 132.172 58.7472 131.6C58.7526 131.262 58.6831 130.926 58.6134 130.588C58.5676 130.366 58.5217 130.143 58.4969 129.92C58.4653 129.636 58.4439 129.351 58.4225 129.066C58.3618 128.256 58.301 127.446 58.0066 126.676C57.8771 126.338 57.7885 125.985 57.6999 125.631L57.6999 125.631C57.5335 124.967 57.3671 124.303 56.9302 123.743C56.4632 123.225 56.1787 122.568 56.1198 121.871C56.0784 121.09 55.709 120.895 54.8175 120.818C54.7104 120.808 54.5868 120.786 54.4624 120.763C54.1698 120.71 53.8723 120.655 53.7714 120.771C53.5089 121.07 53.3289 120.924 53.1496 120.779C52.9845 120.645 52.8201 120.512 52.5924 120.727C52.1406 122.27 52.1591 123.934 52.1776 125.588C52.1797 125.777 52.1818 125.966 52.1832 126.155C52.1921 127.332 52.312 128.506 52.4319 129.681L52.4319 129.682C52.4903 130.254 52.5487 130.826 52.5943 131.399C52.6576 132.192 52.9314 132.914 53.2097 133.648ZM103.463 160.883L103.463 160.883L103.473 160.83C103.692 159.586 103.999 158.359 104.392 157.158C104.478 156.898 104.55 156.63 104.623 156.36C104.883 155.391 105.149 154.402 106.105 153.701C106.278 154.35 106.094 154.94 105.904 155.551C105.731 156.108 105.552 156.682 105.632 157.335C106.094 156.622 106.343 155.873 106.601 155.093C106.8 154.495 107.004 153.88 107.315 153.251L107.708 154.271C107.908 154.104 108.116 153.93 108.324 153.756L109.555 154.443C109.544 154.516 109.531 154.599 109.516 154.687L109.516 154.688L109.516 154.689C109.48 154.908 109.438 155.165 109.417 155.424C109.303 156.835 109.309 156.845 110.093 158.186L110.112 158.219C110.197 158.378 110.265 158.546 110.313 158.72C110.728 160.032 111.003 161.348 110.668 162.741C110.527 163.375 110.264 163.975 109.895 164.509C109.822 164.625 109.79 164.762 109.802 164.898C109.822 165.021 109.775 165.145 109.679 165.226C109.584 165.306 109.453 165.33 109.336 165.289C108.926 165.214 108.533 165.295 108.14 165.377C107.823 165.443 107.506 165.509 107.181 165.492C106.897 165.498 106.628 165.626 106.444 165.844C106.127 166.126 105.152 166.017 104.916 165.705C104.868 165.64 104.854 165.549 104.84 165.458C104.811 165.275 104.783 165.092 104.482 165.119C104.242 165.155 104.005 165.207 103.772 165.274C102.952 163.699 103.21 162.275 103.463 160.883ZM88.8044 108.284L89.5808 108.743C89.9301 108.618 90.0738 108.326 90.2183 108.032C90.349 107.765 90.4803 107.498 90.765 107.352C90.8828 107.243 90.9106 107.068 90.8321 106.929C90.7536 106.79 90.5894 106.724 90.436 106.77C90.3767 106.776 90.3068 106.657 90.2369 106.54C90.2048 106.485 90.1726 106.431 90.1416 106.389C90.1775 106.365 90.2205 106.332 90.2634 106.299C90.3554 106.228 90.4473 106.158 90.4708 106.176C91.0845 106.65 91.3253 106.005 91.4222 105.725C91.5035 105.491 91.5892 105.257 91.6749 105.023C92.0249 104.068 92.3767 103.108 92.4464 102.085L92.4473 102.072C92.4834 101.541 92.5293 100.865 91.6534 100.859C91.6086 100.858 91.5401 100.767 91.5215 100.706C91.3174 100.033 90.8934 99.9749 90.3299 100.265C89.8379 100.518 89.812 100.192 89.7917 99.9373L89.7881 99.8932L88.7639 99.8678L88.2113 101.038C88.1494 100.868 88.1622 100.697 88.1747 100.53C88.196 100.245 88.2166 99.9695 87.8618 99.7236L87.6894 99.7864L87.6891 99.7865L87.6881 99.7869L87.687 99.7873L87.6867 99.7874L87.6858 99.7877C87.5176 99.8492 87.3302 99.9176 87.1419 99.9837C87.0503 100.015 86.9503 100.063 86.8503 100.111C86.6287 100.217 86.4068 100.324 86.2762 100.255C85.7358 99.9709 85.635 100.307 85.544 100.611C85.5321 100.65 85.5204 100.689 85.5079 100.726C85.364 101.152 85.2404 101.585 85.1167 102.018C85.0298 102.322 84.9428 102.626 84.8488 102.928C84.7752 103.103 84.6841 103.27 84.5769 103.427L84.3468 103.334C84.6361 102.301 84.9256 101.269 85.2507 100.11C84.5123 100.66 84.3243 101.296 84.127 101.992C83.8184 103.093 83.6528 104.229 83.6344 105.371C83.6066 106.817 83.8405 108.232 85.2887 109.05C85.4004 109.126 85.5048 109.212 85.6003 109.307L88.6464 109.031L88.8044 108.284ZM105.657 81.372L105.728 82.224L106.035 81.9342C106.212 81.7661 106.379 81.6085 106.555 81.4418C106.716 81.5276 106.879 81.6121 107.044 81.6974C107.435 81.8992 107.833 82.1047 108.214 82.3386C108.544 82.5423 108.842 82.7942 109.098 83.0861C109.179 83.1787 109.134 83.2799 109.083 83.3945C109.012 83.5525 108.93 83.7359 109.151 83.9575C109.356 84.1618 109.269 84.6278 109.189 85.0523L109.189 85.0527L109.189 85.0534L109.189 85.0547C109.173 85.1419 109.157 85.2273 109.144 85.3083C109.124 85.4328 109.038 85.5549 108.951 85.6784C108.768 85.9391 108.58 86.2062 108.996 86.5165L108.139 87.6619C108.12 87.6875 108.103 87.7154 108.087 87.7432L108.073 87.7669L108.065 87.7802L108.324 90.8427C108.516 90.9825 108.697 91.1374 108.865 91.3059C109.104 91.5828 109.171 92.1099 108.885 92.162C108.544 92.2241 108.486 92.4654 108.43 92.6947C108.381 92.8935 108.335 93.0833 108.109 93.1392C107.027 92.6752 106.73 92.4754 106.132 91.7625C105.986 92.2928 105.859 92.7552 105.7 93.3362C105.64 93.3404 105.565 93.3557 105.485 93.3719C105.297 93.4103 105.085 93.4537 104.983 93.3669C104.788 93.2013 104.582 93.0447 104.376 92.8879C103.613 92.3076 102.846 91.724 102.634 90.6648C102.523 90.3095 102.451 89.9429 102.419 89.5716C102.439 88.8638 102.509 88.1568 102.578 87.4506L102.601 87.2248L102.614 87.0912C102.637 86.8552 102.673 86.6205 102.71 86.3858C102.737 86.2152 102.764 86.0446 102.785 85.8734C102.815 85.6351 102.915 85.4123 103.016 85.1895C103.181 84.8232 103.345 84.4571 103.197 84.0229C103.571 83.691 103.681 83.2573 103.792 82.814L103.792 82.8137C103.827 82.6778 103.861 82.541 103.904 82.406C103.992 82.032 104.23 81.7098 104.561 81.5145C104.893 81.3191 105.288 81.2676 105.657 81.372ZM86.1994 36.6619L85.1685 35.7968C84.5569 35.1572 83.8059 34.6678 82.9733 34.3662C82.6183 34.2356 82.2376 34.2043 81.8539 34.1728C81.4639 34.1408 81.0709 34.1085 80.6987 33.9714C80.6148 33.9403 80.4249 34.0559 80.3541 34.1537C80.1331 34.4537 79.9337 34.7691 79.7575 35.0974C79.4329 35.7128 79.3906 36.3783 79.3482 37.0459C79.3355 37.2465 79.3227 37.4473 79.3023 37.647C79.1286 39.351 79.3268 40.9047 80.7592 42.0603C80.8717 42.1399 80.9509 42.2581 80.982 42.3926C81.0077 42.9107 81.3369 42.9612 81.6647 43.0115C81.8439 43.039 82.0226 43.0665 82.1511 43.1701C82.8508 42.9453 83.537 43.1038 84.206 43.2584C84.4433 43.3133 84.6784 43.3676 84.9111 43.4042C85.7031 43.5286 86.1328 43.3203 86.4111 42.7616C86.4665 42.6505 86.5236 42.5395 86.5808 42.4282C87.0291 41.5568 87.4865 40.6675 87.1908 39.6094C87.1516 39.4675 87.1514 39.3138 87.1513 39.1597C87.151 38.837 87.1507 38.5127 86.7912 38.2921C86.7 38.2028 86.6617 38.0724 86.6901 37.9473C87.0479 37.3527 86.6814 37.0547 86.3128 36.755C86.2747 36.7241 86.2367 36.6932 86.1994 36.6619ZM37.6435 88.799C37.5898 89.1947 37.5503 89.4856 37.4738 90.0508C37.6205 89.9168 37.7303 89.8172 37.8172 89.7384L37.8176 89.738L37.8181 89.7376C37.9562 89.6123 38.0362 89.5398 38.1145 89.465L38.116 89.4636C38.3093 89.2787 38.4138 89.1788 38.529 89.1645C38.6645 89.1477 38.8147 89.2497 39.1417 89.4716L39.1434 89.4727C39.1627 89.4859 39.1837 89.5021 39.2051 89.5188C39.2677 89.5674 39.3342 89.6192 39.3776 89.6052C39.8999 89.4122 40.4832 89.6179 40.766 90.095C41.1379 90.6044 41.405 91.183 41.5521 91.7975C41.9513 94.1319 41.4453 96.3874 40.6771 98.5865C40.5875 98.8434 40.3737 99.0572 40.1613 99.2698C40.0636 99.3675 39.9662 99.4649 39.8813 99.5661L39.4948 99.1609C39.1846 99.5873 38.8438 99.8096 38.2953 99.5124C38.0723 99.4306 37.8226 99.4648 37.6284 99.6037C37.3583 99.8687 37.1438 99.7455 36.9334 99.6247C36.79 99.5423 36.6484 99.461 36.4925 99.5045C36.5431 99.1447 36.3032 99.0158 36.0617 98.886C35.8512 98.7729 35.6395 98.6592 35.618 98.3912C35.6026 98.1977 35.5668 98.0014 35.531 97.8058C35.4647 97.4429 35.3988 97.0821 35.4648 96.7445C35.6607 95.5901 35.9805 94.4594 36.4185 93.3723C36.655 92.9166 36.6976 92.3856 36.5368 91.9003C36.2475 91.158 36.2007 90.3416 36.4032 89.5681L36.4105 89.5418C36.5875 88.8997 36.5888 88.895 37.6435 88.799ZM69.8893 92.8939C69.7559 93.011 69.6382 93.145 69.5394 93.2924C69.4992 93.7678 69.5117 94.2258 69.524 94.6746C69.5298 94.888 69.5356 95.0994 69.5356 95.3095C69.5314 96.6121 69.5298 97.9502 70.1891 99.1967C70.6297 100.029 71.3166 100.468 72.0598 100.292C72.2727 100.242 72.4984 100.265 72.7231 100.288C73.125 100.33 73.5236 100.371 73.8399 99.9905C74.5238 100.416 74.8463 99.8203 75.0217 99.4195C75.5128 98.2988 75.9853 97.1452 75.9479 95.8871C75.9411 95.6555 75.8878 95.426 75.8344 95.1963L75.8344 95.1962C75.7851 94.9838 75.7357 94.7712 75.723 94.5565C75.7019 94.2016 75.7225 93.844 75.7447 93.4579L75.7447 93.4578C75.7548 93.2826 75.7653 93.1016 75.7723 92.9123L73.8636 91.854L73.6978 91.9968L73.5868 92.0922L73.5848 92.0939C73.4438 92.2153 73.3008 92.3383 73.1279 92.4878L72.7417 90.4279C72.5874 90.4376 72.4268 90.4634 72.2754 90.4878C71.9673 90.5373 71.6974 90.5807 71.5964 90.4697C71.4322 90.2896 71.235 90.213 71.0378 90.1363C70.8443 90.0611 70.6508 89.9858 70.4883 89.8129C70.4767 90.0251 70.6162 90.1814 70.7507 90.332C70.9591 90.5653 71.1554 90.7851 70.7587 91.179L70.4265 90.516C69.8054 90.8996 69.9789 91.3985 70.1593 91.9168L70.1594 91.9171C70.1771 91.968 70.1948 92.0191 70.2119 92.0702C70.3193 91.826 70.4279 91.5825 70.5623 91.2805C70.6689 91.3936 70.7554 91.5241 70.8182 91.6664C70.859 91.8498 70.852 92.0409 70.798 92.2214C70.7808 92.269 70.7105 92.2934 70.6359 92.3193C70.5676 92.343 70.4958 92.368 70.458 92.413C70.416 92.4641 70.3984 92.5378 70.3812 92.6102C70.3621 92.6901 70.3434 92.7683 70.2929 92.8126C70.2475 92.8527 70.1696 92.854 70.0908 92.8554C70.0151 92.8568 69.9385 92.8581 69.8893 92.8939ZM75.7156 123.306L76.1096 123.96C76.5605 123.468 76.5489 122.926 76.5371 122.377C76.527 121.91 76.5169 121.438 76.7904 120.986C76.9097 121.179 77.007 121.385 77.0804 121.6C77.1311 121.948 77.1638 122.298 77.1784 122.65C77.4419 122.29 77.5698 121.85 77.5393 121.407C78.2047 121.282 78.497 121.228 78.7479 121.306C78.9445 121.367 79.1157 121.51 79.421 121.764C79.4266 121.993 79.4165 122.229 79.4063 122.467L79.4063 122.467C79.383 123.015 79.3591 123.574 79.5241 124.069C79.683 124.546 79.6281 124.992 79.5737 125.434C79.5386 125.719 79.5038 126.003 79.526 126.292C79.5332 127.021 79.4313 127.748 79.2238 128.448C79.1508 128.854 78.9599 129.23 78.675 129.53C78.3147 129.843 77.716 130.246 77.3759 130.135C76.9854 130.009 76.7915 130.153 76.5926 130.301C76.5062 130.366 76.4189 130.431 76.3142 130.474C75.8413 130.672 75.3099 130.805 74.7948 130.5C74.6856 130.436 74.5523 130.387 74.421 130.339L74.4209 130.338C74.1904 130.254 73.9661 130.171 73.8897 130.012C73.5712 129.404 73.3728 128.74 73.3056 128.056C73.2558 126.794 73.2872 125.53 73.3997 124.272C73.4157 124.062 73.5773 123.864 73.7675 123.63L73.7675 123.63L73.7676 123.63C73.8643 123.511 73.9683 123.383 74.0643 123.24L74.1985 123.933C74.463 123.506 74.8447 123.461 75.205 123.418C75.3865 123.396 75.5626 123.375 75.7156 123.306ZM34.9447 158.762L35.2645 159.591C35.5198 159.161 35.7459 158.715 35.9411 158.255C36.0072 158.057 35.9746 157.673 35.8475 157.592C35.5685 157.414 35.534 157.146 35.5018 156.897C35.481 156.735 35.4612 156.582 35.3771 156.465C35.1629 156.17 35.1501 155.874 35.1373 155.58C35.1323 155.465 35.1274 155.351 35.1104 155.237C35.0761 155.005 35.0716 154.763 35.0672 154.522C35.0596 154.114 35.0522 153.71 34.8997 153.368C34.7478 153.027 34.7164 152.689 34.6853 152.354C34.6653 152.138 34.6454 151.923 34.5933 151.711C34.5013 151.337 34.4023 150.964 34.3037 150.593L34.3036 150.593L34.3035 150.592L34.3035 150.592L34.3034 150.592L34.3031 150.591L34.3028 150.59L34.2518 150.397C34.2254 150.298 34.1991 150.198 34.173 150.098L32.9636 149.084C32.7415 149.592 32.5292 149.414 32.3151 149.235C32.1477 149.095 31.9791 148.954 31.8039 149.139C31.6619 149.282 31.6908 149.479 31.72 149.678C31.7607 149.954 31.8019 150.235 31.3829 150.379C31.3665 150.278 31.358 150.172 31.3496 150.067C31.3163 149.653 31.2841 149.251 30.7585 149.174C30.2446 149.849 30.3272 150.595 30.4098 151.342L30.4217 151.449C30.4459 151.593 30.4574 151.739 30.4559 151.885C30.3314 153.485 30.3259 155.091 30.4397 156.691C30.454 156.878 30.4235 157.068 30.393 157.258C30.3648 157.434 30.3365 157.611 30.3438 157.785L30.3468 157.857C30.3731 158.499 30.4003 159.163 31.0421 159.564C31.2729 159.35 31.3061 159.066 31.3387 158.788C31.378 158.452 31.4164 158.124 31.7997 157.935L31.9755 160.022L32.8579 160.173L33.3613 158.509C33.8261 159.459 33.9271 159.463 34.9447 158.762ZM90.6514 78.0003C90.7756 78.1195 90.908 78.2005 91.034 78.2776C91.276 78.4256 91.4942 78.5591 91.5842 78.9209L91.0044 78.6995C90.9378 78.8514 90.8724 79.004 90.807 79.1568L90.8069 79.157L90.8068 79.1573L90.8067 79.1576L90.8066 79.1579C90.6305 79.569 90.4543 79.9805 90.2541 80.3781C90.1836 80.5185 89.9288 80.6983 89.8187 80.6644C89.4625 80.5556 89.1291 80.6379 88.799 80.7193C88.5655 80.777 88.3337 80.8342 88.0967 80.823C87.8278 80.7827 87.5739 80.6747 87.3588 80.509C87.3034 80.4722 87.2783 80.3899 87.2532 80.3078C87.2282 80.2261 87.2033 80.1446 87.1487 80.108C86.9803 80.0386 86.8003 80.0008 86.6178 79.9964L86.6452 79.9357C86.9995 79.153 87.0178 79.1126 86.4939 78.2426C86.294 77.9112 86.3268 77.5829 86.3601 77.2501C86.3804 77.047 86.4009 76.8422 86.3688 76.634L85.9731 76.8182L85.7568 76.919C85.7528 76.85 85.7396 76.7753 85.7268 76.7022C85.7 76.5497 85.6744 76.4043 85.7354 76.3323C86.8645 74.9987 86.8889 74.9673 86.9543 73.6556C86.4422 73.8461 86.3696 74.2481 86.2926 74.6737C86.2416 74.9557 86.1888 75.248 86.005 75.496C85.9589 75.4432 85.9004 75.3881 85.8435 75.3344C85.7258 75.2234 85.615 75.1189 85.6353 75.0558C85.6798 74.9171 85.7202 74.7765 85.7606 74.6361C85.9931 73.8277 86.2236 73.0262 87.2016 72.6309C87.2466 72.6127 87.2882 72.595 87.3271 72.5784C87.5965 72.4637 87.7374 72.4037 88.0126 72.627C88.2387 72.7753 88.4997 72.8621 88.7701 72.8789C89.2501 72.9424 89.7327 72.9866 90.2375 73.0328L90.2376 73.0328L90.2385 73.0329C90.447 73.052 90.6593 73.0714 90.8768 73.0927L90.828 73.5231C90.8931 73.7658 91.1054 73.8387 91.2873 73.9011C91.5362 73.9864 91.7281 74.0522 91.4081 74.5067C91.3475 74.5929 91.441 74.6298 91.5527 74.6737C91.7308 74.7439 91.9548 74.8321 91.6735 75.1674C91.5507 75.3138 91.613 75.6155 91.6729 75.9059L91.6729 75.9059L91.6729 75.906C91.6995 76.0346 91.7255 76.1609 91.7348 76.2705C91.6125 76.3388 91.4931 76.4051 91.3753 76.4706L91.0939 76.6271C91.1164 76.7117 91.1391 76.7962 91.162 76.8806L91.465 76.7558L91.9865 76.5409C91.9248 76.9031 91.8818 77.1566 91.8384 77.412L91.7842 77.7311C91.4351 77.8145 91.0432 77.9075 90.6514 78.0003ZM24.9966 78.6179L24.9521 80.0666C25.1574 80.0882 25.3646 80.0862 25.5698 80.0609C25.7334 79.9868 25.8926 79.9032 26.0466 79.8105L26.0723 79.7986L26.0724 79.7985C26.2234 79.7282 26.4637 79.6165 26.4896 79.6515C26.6938 79.9295 27.0005 79.9217 27.3063 79.9139C27.6342 79.9055 27.9611 79.8972 28.1601 80.2409C28.2716 80.1877 28.3802 80.1286 28.4855 80.0638C28.3517 79.7729 28.5287 79.6466 28.7038 79.5218C28.7958 79.4562 28.8873 79.3909 28.9328 79.3024C29.1291 78.921 29.1735 78.5223 29.2174 78.1281C29.2484 77.8495 29.2792 77.5731 29.3632 77.3066C29.7339 76.1564 29.8354 74.9378 29.6599 73.7453L27.1062 72.1524L26.1882 73.2464C26.0662 73.0376 26.0609 72.7976 26.0558 72.5648C26.0485 72.2307 26.0415 71.9116 25.6902 71.7212C25.0378 72.2265 24.5572 72.8402 24.4974 73.6001C24.4479 74.2288 24.3474 74.8495 24.247 75.4695C24.1501 76.0674 24.0533 76.6647 24.0026 77.2678C23.925 77.8434 24.0013 78.4285 24.2236 78.9631L24.9966 78.6179ZM38.2832 114.411L37.8625 115.81L38.5277 115.436C38.5304 115.445 38.5336 115.453 38.5371 115.462C38.5436 115.477 38.5513 115.493 38.5588 115.51C38.5837 115.563 38.6082 115.615 38.5928 115.648C38.3717 116.108 38.2732 116.616 38.3069 117.124C38.3104 117.445 38.2697 117.765 38.186 118.075C38.0351 118.604 38.1573 119.173 38.5117 119.59C38.7058 119.504 38.9061 119.415 38.999 119.373L39.2248 120.348C39.1784 120.404 39.1448 120.448 39.1194 120.482C39.0805 120.534 39.061 120.56 39.0451 120.558C38.7976 120.529 38.5511 120.492 38.3172 120.457L38.1341 120.43C37.9314 120.782 37.7472 121.102 37.4716 121.58L37.0115 120.542L36.3538 120.831L35.7952 121.077L35.2027 120.686L34.7838 121.185C33.868 121.137 33.4565 120.695 33.3446 119.841C33.2983 119.488 33.2333 119.137 33.1674 118.782L33.1673 118.782C33.0595 118.2 32.9492 117.606 32.9147 116.966L33.9856 117.086C34.2415 116.516 34.3743 115.9 34.3752 115.277C34.3848 114.815 34.5126 114.354 34.6383 113.901L34.6384 113.901C34.6929 113.705 34.747 113.51 34.7909 113.317C35.3189 113.213 35.4333 113.514 35.5538 113.833C35.5857 113.917 35.618 114.002 35.6586 114.081C35.6933 114.048 35.7328 114.018 35.7714 113.988C35.8528 113.925 35.9304 113.866 35.9525 113.79C36.1542 113.095 36.4607 112.926 36.9539 113.302C37.2747 113.547 37.5815 113.811 37.8839 114.071C38.0176 114.186 38.1504 114.3 38.2832 114.411ZM2.63982 93.4207L2.77207 92.1851L2.72775 92.1802L2.6596 92.1723C2.34278 92.1347 2.06399 92.1017 1.75661 92.4038C1.05664 93.0911 0.821558 93.9692 0.587264 94.8443C0.526968 95.0696 0.466723 95.2946 0.398618 95.5161C0.261975 95.9604 0.731242 96.5368 1.25677 96.8113C1.46401 96.9259 1.65565 97.0667 1.82705 97.2301C2.24136 97.6564 2.91983 97.6775 3.36482 97.278C3.70235 97.0171 3.95909 96.8684 4.37053 97.0522C4.72133 97.2394 5.15892 97.1125 5.35814 96.7657C5.38186 96.7331 5.40525 96.6999 5.42872 96.6665C5.62 96.3944 5.81686 96.1144 6.24807 96.1239C6.42967 96.0501 6.56219 95.8896 6.60014 95.6973C6.60833 95.6029 6.54938 95.4918 6.49419 95.3878C6.43595 95.2781 6.38189 95.1763 6.41521 95.11C6.45695 95.0273 6.5732 94.9876 6.69384 94.9463C6.80459 94.9084 6.91903 94.8693 6.98292 94.7945C7.42993 94.272 7.27219 93.6691 6.99501 93.1666C6.92101 93.0319 6.80175 92.9268 6.67957 92.8192C6.49528 92.6568 6.30436 92.4887 6.25218 92.2039C6.24738 92.1778 6.08372 92.1862 5.8909 92.1961L5.89057 92.1961L5.89051 92.1961C5.73683 92.204 5.56467 92.2129 5.43961 92.206C5.29803 92.1757 5.16115 92.1269 5.03249 92.0608L4.26209 92.9789C4.36485 92.5796 4.41666 92.3788 4.45937 92.2139L3.80991 91.6689C3.73377 91.8163 3.66082 91.9592 3.58969 92.0986L3.58964 92.0987C3.39783 92.4745 3.21912 92.8246 3.02629 93.1671C2.99095 93.2301 2.91443 93.2701 2.81579 93.3217C2.76257 93.3495 2.70292 93.3807 2.63982 93.4207ZM55.5467 102.019L56.2422 103.067C56.6968 102.832 57.0332 102.522 56.9861 101.931C57.396 101.913 57.4954 102.172 57.5984 102.441C57.6693 102.626 57.7419 102.815 57.9183 102.923L58.5336 102.414C58.821 102.379 58.9061 102.57 58.9958 102.771C59.0845 102.97 59.1778 103.18 59.4753 103.19C59.845 103.205 59.8362 103.465 59.8269 103.743C59.8207 103.926 59.8143 104.117 59.9158 104.251C60.0427 104.488 60.0946 104.759 60.0645 105.028C60.0583 105.392 59.9585 105.741 59.8582 106.092C59.7188 106.58 59.5785 107.072 59.6865 107.61C59.7162 107.758 59.5555 107.945 59.3721 108.159C59.2804 108.265 59.183 108.379 59.1009 108.497C58.9128 108.069 58.5906 108.115 58.2667 108.161C57.9591 108.205 57.6501 108.249 57.4531 107.887C57.321 107.932 57.2027 108.025 57.082 108.121C56.8021 108.343 56.5087 108.576 55.9964 108.224L56.1477 107.346L55.7823 107.514L55.4029 107.687C54.9672 107.469 55.0413 107.025 55.0935 106.712L55.1007 106.669C55.2724 105.651 55.1822 104.607 54.8387 103.636C54.6264 103.02 54.7435 102.405 55.5467 102.019ZM72.8082 67.5352L75.1635 67.6068C75.2321 67.4726 75.3196 67.3327 75.4104 67.1876C75.6224 66.8488 75.852 66.4817 75.8989 66.094C76.0379 65.1062 76.0231 64.1037 75.8548 63.1223C75.6332 61.9987 75.2067 60.8678 73.6725 60.9553C73.5741 60.9608 73.4726 60.9027 73.3579 60.8371C73.2983 60.803 73.2351 60.7668 73.167 60.7366C73.1023 60.8536 73.0272 60.9632 72.9557 61.0675C72.8097 61.2807 72.6785 61.4721 72.6805 61.6616C72.6818 61.789 72.6854 61.9164 72.6891 62.0435C72.7107 62.8007 72.7321 63.5469 72.2487 64.2209C72.3551 64.7775 72.2122 65.2984 72.0704 65.8153C71.9853 66.1254 71.9006 66.4341 71.8703 66.7482L72.8082 67.5352Z" fill="#171B1B"/>
</svg>
