<svg width="280" height="214" viewBox="0 0 280 214" fill="none" xmlns="http://www.w3.org/2000/svg">
<path fill-rule="evenodd" clip-rule="evenodd" d="M100.807 1.53633C99.3471 1.70285 97.8864 1.86947 96.4015 1.67502C98.3961 1.35562 100.419 1.25308 102.436 1.36922C101.892 1.41254 101.35 1.47442 100.807 1.53633ZM96.3617 1.67408L95.6039 1.5391C100.26 0.87673 104.979 0.770705 109.661 1.22331C116.29 1.92275 122.781 3.59516 128.924 6.18677C134.934 8.7359 140.759 11.7055 146.353 15.0737C154.557 19.9265 162.816 24.6713 171.506 28.6283C178.641 31.9334 186.356 33.7961 194.211 34.1096C197.332 34.2263 200.451 34.2906 203.651 34.1689C203.465 34.5113 203.215 34.5174 202.932 34.5242C202.717 34.5293 202.483 34.535 202.245 34.6901C202.549 34.6741 202.854 34.6875 203.142 34.7002C203.74 34.7265 204.267 34.7497 204.574 34.5009C205.058 34.0359 205.757 33.8715 206.397 34.0721C207.781 34.7184 209.144 34.5024 210.501 34.2874C211.119 34.1895 211.735 34.0918 212.352 34.0758C213.107 34.0563 213.84 33.8546 214.579 33.6515C215.37 33.4338 216.168 33.2144 217.005 33.2153C217.672 33.2162 218.336 33.1667 219 33.1172C220.383 33.014 221.769 32.9107 223.189 33.2631C224.129 33.4956 225.291 33.1389 226.353 32.792C227.336 32.4712 228.623 32.3147 229.52 32.6935C230.453 33.0867 231.369 33.0291 232.282 32.9717L232.283 32.9717C232.849 32.9361 233.415 32.9005 233.983 32.9727C237.617 33.3962 241.222 34.037 244.779 34.8919C249.821 36.2073 254.711 38.0493 259.368 40.3876C267.145 44.1947 272.363 50.4173 276.041 58.0634C279.724 65.7232 280.27 73.55 277.063 81.5424L277 81.7004C275.333 85.8568 273.666 90.0124 271.637 94.0064C270.342 96.6058 268.714 99.0244 266.793 101.201C265.191 102.989 264.221 105.121 263.251 107.252L263.25 107.254C263.174 107.423 263.097 107.591 263.02 107.76C260.248 113.821 256.902 119.506 252.34 124.406C247.734 129.352 242.211 133.042 236.143 135.919C228.073 139.745 219.466 141.615 210.686 142.936L210.168 143.013L210.168 143.013C197.707 144.887 185.234 146.762 173.257 150.915C164.7 153.882 156.473 157.531 149.108 162.918C145.85 165.301 143.256 168.307 140.788 171.471C139.225 173.473 137.706 175.51 136.187 177.546C133.476 181.18 130.765 184.815 127.807 188.255C124.491 192.11 121.059 195.865 116.981 198.944C109.835 204.338 102.137 208.751 93.4628 211.127C84.1672 213.674 74.7617 214.535 65.32 211.738C56.3341 209.075 48.8899 204.311 44.3301 195.831C41.838 191.192 40.8567 186.096 40.5567 180.888C40.2858 176.186 40.2479 171.479 40.2101 166.77L40.21 166.77L40.21 166.77L40.21 166.77L40.21 166.77L40.21 166.769L40.21 166.769L40.21 166.769L40.2099 166.769L40.2099 166.768C40.1708 161.9 40.1316 157.032 39.8348 152.169C39.7666 151.051 39.7059 149.933 39.6452 148.815C39.354 143.448 39.0629 138.083 37.9386 132.799C36.2802 124.998 32.4235 118.373 27.1288 112.501C24.8914 110.017 22.5825 107.6 20.2736 105.183L20.2709 105.18C18.9115 103.757 17.5522 102.334 16.2074 100.897C11.8544 96.2457 7.80245 91.3614 4.77359 85.7043C-0.548915 75.7635 -0.260436 65.7614 4.45657 55.7279C7.24142 49.9084 10.8887 44.5441 15.2749 39.8166C16.8524 38.0859 18.5348 36.4688 20.2124 34.8563C20.505 34.575 20.7974 34.2939 21.0892 34.0123C22.8873 32.2755 24.8536 30.7224 26.9592 29.3759C27.8332 28.8177 28.6436 28.1642 29.4571 27.5081L29.4573 27.5079L29.4576 27.5077C30.2095 26.9014 30.9641 26.2928 31.7744 25.7552C37.8706 21.6793 44.2316 18.0152 50.815 14.7873C54.77 12.8643 58.8449 11.2358 62.9266 9.64054C66.1914 8.36484 69.5346 7.28021 72.9333 6.32732C73.7624 6.09484 74.5915 5.85527 75.4213 5.61549C77.3973 5.04449 79.3776 4.47228 81.3738 3.99157C82.1636 3.80144 82.9828 3.76175 83.8081 3.72178C84.5714 3.6848 85.34 3.64757 86.0956 3.49086C89.2163 2.79118 92.3842 2.32269 95.5737 2.08922C95.893 2.07249 96.2122 2.02746 96.3617 1.67408ZM73.7631 207.486L73.8229 207.674C74.2328 207.672 74.6433 207.679 75.0539 207.686C75.9547 207.701 76.8555 207.716 77.7492 207.644C78.0758 207.617 78.4024 207.591 78.729 207.566C82.6404 207.257 86.5388 206.949 90.1997 205.157C90.6679 204.928 91.2041 204.81 91.7528 204.689C92.4227 204.541 93.1113 204.389 93.7179 204.026C94.4673 203.577 95.2827 203.306 96.1057 203.033C96.9415 202.755 97.7852 202.475 98.5758 202.003C100.996 200.558 103.481 199.172 106.017 197.922C107.144 197.366 108.135 196.633 109.124 195.9L109.124 195.9L109.124 195.9C109.611 195.54 110.097 195.179 110.599 194.841C111.758 193.967 112.867 193.03 113.922 192.034C115.984 190.304 117.896 188.403 119.639 186.351C121.383 184.266 123.051 182.098 124.684 179.914C125.32 179.063 125.943 178.2 126.566 177.337C127.52 176.015 128.475 174.693 129.479 173.412C131.445 170.94 133.249 168.343 134.879 165.638C135.299 164.929 135.84 164.343 136.38 163.757L136.38 163.757C136.871 163.225 137.363 162.693 137.765 162.067C138.444 160.891 139.261 159.799 140.198 158.816C141.959 157.115 143.844 155.548 145.839 154.128C152.543 149.43 159.906 146.045 167.598 143.356C167.964 143.229 168.328 143.097 168.694 142.964L168.694 142.964L168.694 142.964L168.694 142.964L168.694 142.964L168.694 142.964L168.694 142.964L168.694 142.964L168.695 142.964C170.697 142.24 172.709 141.512 174.895 141.456C175.704 141.479 176.509 141.339 177.262 141.043C178.649 140.402 180.126 139.982 181.642 139.798C183.396 139.565 185.123 139.204 186.852 138.844L186.852 138.844C188.262 138.55 189.672 138.256 191.099 138.03C196.239 137.216 201.384 136.449 206.559 135.941C208.002 135.799 209.429 135.565 210.856 135.331L210.857 135.331L210.857 135.331L210.857 135.331L210.857 135.331L210.857 135.331L210.857 135.331L210.857 135.331L210.857 135.331L210.857 135.331C212.545 135.055 214.235 134.778 215.952 134.653C217.4 134.547 218.825 134.086 220.247 133.625C220.815 133.441 221.383 133.257 221.951 133.096C231.37 130.428 239.849 126.102 246.492 118.728C246.88 118.298 247.357 118.064 247.827 117.834C248.378 117.564 248.92 117.298 249.297 116.725C252.434 111.949 255.637 107.217 259.039 102.621C261.378 99.4588 262.94 95.8923 264.502 92.3252C265.327 90.4427 266.152 88.5601 267.09 86.7367L267.137 86.6456L267.179 86.5639L267.18 86.5628C267.642 85.6598 267.667 85.6114 268.814 85.0302C268.904 84.9847 268.948 84.8418 268.99 84.7043C269.006 84.653 269.022 84.6024 269.039 84.558C269.469 83.4784 269.928 82.4107 270.388 81.3431C271.328 79.1599 272.268 76.9771 272.947 74.6935C273.05 74.3454 273.159 73.9977 273.267 73.6499C273.82 71.8722 274.375 70.0877 274.306 68.1914C274.011 60.2954 270.421 54.1447 264.189 49.4843C260.675 46.8571 256.689 45.0801 252.624 43.4892C244.292 40.1997 235.359 38.7151 226.413 39.1332C222.804 39.2956 219.201 39.5602 215.599 39.8247C210.215 40.22 204.83 40.6154 199.42 40.6704C190.609 40.8266 181.855 39.2147 173.675 35.9296C163.764 31.9175 154.491 26.6692 145.257 21.3378C138.926 17.6831 132.476 14.2609 125.574 11.7933C115.866 8.32305 105.9 7.51549 95.7016 8.85929C89.5433 9.65907 83.4473 10.8816 77.4565 12.5182C61.0449 17.0319 45.6095 23.7693 31.3736 33.1851C24.8814 37.4793 18.9315 42.3642 14.1814 48.6006C10.9797 52.807 8.09794 57.1937 6.3331 62.2277C5.29788 65.1813 4.69641 68.1908 5.32388 71.3231C6.08624 75.1634 7.53405 78.8345 9.5978 82.1602C13.3396 88.201 18.226 93.2711 23.1139 98.3428C23.7085 98.9597 24.303 99.5766 24.8955 100.195C30.2542 105.791 35.5003 111.442 38.7471 118.683C40.6352 122.801 41.9235 127.17 42.5727 131.655C44.1035 142.726 44.0126 153.871 43.9216 165.011L43.9216 165.012L43.911 166.328C43.899 167.835 43.8501 169.342 43.8011 170.848L43.8011 170.849C43.6763 174.692 43.5515 178.535 44.0402 182.374C44.4969 185.957 45.3165 189.429 47.1251 192.601C50.394 198.156 55.4996 202.392 61.558 204.576C61.734 204.62 61.9001 204.696 62.0476 204.801C63.4466 206.052 65.1674 206.207 66.8916 206.363L66.8924 206.363C67.0634 206.378 67.2345 206.394 67.4053 206.41C67.5245 206.422 67.6526 206.427 67.7825 206.432C68.1883 206.449 68.6125 206.467 68.8428 206.68C69.4453 207.237 70.138 207.197 70.8437 207.156C71.4158 207.123 71.9965 207.09 72.5447 207.374C72.8426 207.528 73.3419 207.46 73.8842 207.385C74.3219 207.325 74.7876 207.261 75.1981 207.308L73.7631 207.486ZM200.584 39.3372C195.572 39.4801 190.562 39.0201 185.66 37.9672C191.26 38.7393 196.917 39.0093 202.564 38.7739C207.365 38.6247 212.151 38.2582 216.937 37.8917C219.269 37.7132 221.6 37.5347 223.933 37.3813C226.21 37.1906 228.5 37.2001 230.776 37.4096C230.22 37.887 229.651 37.7884 229.099 37.6926C228.83 37.6458 228.564 37.5997 228.305 37.6216C226.641 37.7624 224.973 37.8659 223.305 37.9694C221.731 38.067 220.157 38.1647 218.586 38.2936C212.593 38.7854 206.597 39.2093 200.584 39.3372ZM77.5433 211.956C71.9598 211.692 66.4407 210.644 61.1475 208.845C66.2646 211.246 71.9039 212.317 77.5433 211.956ZM171.162 149.238C164.97 151.024 159.079 153.725 153.684 157.253C159.362 154.257 165.224 151.664 171.162 149.238ZM240.943 131.1C245.863 128.115 250.436 124.73 253.646 119.818C249.857 124.053 245.595 127.838 240.943 131.1ZM117.376 7.84976L117.376 7.84972C112.039 7.05613 106.702 6.26256 101.268 6.69923C107.258 5.88688 113.353 6.36817 119.143 8.1108C118.559 8.02565 117.975 7.93887 117.392 7.85209L117.376 7.84976ZM85.5194 211.59C85.3944 211.453 85.3088 211.349 85.2482 211.276C85.1617 211.172 85.1258 211.128 85.0981 211.133C83.0529 211.529 80.9716 211.707 78.8889 211.663C78.7986 211.645 78.7052 211.666 78.6307 211.72C78.5562 211.774 78.5071 211.856 78.495 211.948C78.4644 212.26 78.7125 212.331 78.9347 212.308C80.5907 212.135 82.2457 211.952 84.0074 211.757L84.0098 211.757L84.0128 211.757C84.5059 211.702 85.0073 211.647 85.5194 211.59ZM152.657 150.839C150.377 151.787 148.257 153.081 146.372 154.676L152.657 150.839ZM211.304 35.0066C208.881 34.7026 207.749 34.9827 207.398 36.1322C207.978 35.0762 208.746 35.1596 209.55 35.247C210.135 35.3106 210.739 35.3762 211.304 35.0066ZM215.76 33.7025L215.782 33.5312L221.111 33.2519L221.12 33.4216L215.76 33.7025Z" fill="black"/>
</svg>
